<svg id="Camada_1" data-name="Camada 1" xmlns="http://www.w3.org/2000/svg" viewBox="0 0 99.03 99.03"><defs><style>.cls-1{fill:#b2b2b2;}</style></defs><title>instagram</title><path class="cls-1" d="M25.46,99.52H74.54a25,25,0,0,0,25-25V25.46a25,25,0,0,0-25-25H25.46a25,25,0,0,0-25,25V74.54A25,25,0,0,0,25.46,99.52ZM11.26,25.46A14.22,14.22,0,0,1,25.46,11.26H74.54A14.22,14.22,0,0,1,88.74,25.46V74.54A14.22,14.22,0,0,1,74.54,88.74H25.46A14.22,14.22,0,0,1,11.26,74.54Z" transform="translate(-0.48 -0.48)"/><path class="cls-1" d="M50,75.51A25.51,25.51,0,1,0,24.49,50,25.54,25.54,0,0,0,50,75.51Zm0-40.23A14.73,14.73,0,1,1,35.27,50,14.74,14.74,0,0,1,50,35.27Z" transform="translate(-0.48 -0.48)"/><circle class="cls-1" cx="75.84" cy="23.25" r="6.04"/></svg>