<svg id="Camada_1" data-name="Camada 1" xmlns="http://www.w3.org/2000/svg" xmlns:xlink="http://www.w3.org/1999/xlink" viewBox="0 0 100 100"><defs><style>.cls-1,.cls-2{fill:none;}.cls-2,.cls-5{stroke:#1d1d1b;}.cls-2{stroke-width:0.7px;}.cls-3{opacity:0.6;}.cls-4{fill:url(#Nova_amostra_de_padrão_1);}.cls-5{fill:#fff;stroke-miterlimit:10;stroke-width:2.5px;}.cls-6{fill:red;}</style><pattern id="Nova_amostra_de_padrão_1" data-name="Nova amostra de padrão 1" width="46.77" height="54" patternTransform="translate(-43.5 10.69) scale(0.84 0.84)" patternUnits="userSpaceOnUse" viewBox="0 0 46.77 54"><rect class="cls-1" width="46.77" height="54"/><circle class="cls-2" cx="39.77" cy="20.83" r="1.5" transform="translate(-5.09 22.68) rotate(-30)"/><circle class="cls-2" cx="38.52" cy="30.67" r="1.5" transform="translate(-7.31 48.68) rotate(-59.98)"/><circle class="cls-2" cx="30.27" cy="17.58" r="1.5" transform="translate(-0.09 35) rotate(-60)"/><circle class="cls-2" cx="22.72" cy="22.88" r="1.5" transform="translate(-8.39 14.41) rotate(-29.99)"/><circle class="cls-2" cx="25.52" cy="30.58" r="1.5" transform="translate(-13.72 37.38) rotate(-60)"/><circle class="cls-2" cx="32.43" cy="36" r="1.5"/><circle class="cls-2" cx="7.82" cy="22.92" r="1.5" transform="translate(-15.94 18.23) rotate(-60)"/><circle class="cls-2" cx="8.45" cy="32" r="1.5" transform="translate(-14.88 8.53) rotate(-30.04)"/><circle class="cls-2" cx="13.72" cy="17.17" r="1.5" transform="translate(-6.75 9.15) rotate(-29.99)"/><circle class="cls-2" cx="18" cy="35" r="1.5"/><circle class="cls-2" cx="39.72" cy="49.25" r="1.5" transform="translate(-19.31 26.46) rotate(-30)"/><circle class="cls-2" cx="24.02" cy="49.33" r="1.5" transform="translate(-21.45 18.62) rotate(-30)"/><circle class="cls-2" cx="31.18" cy="45" r="1.5"/><circle class="cls-2" cx="7.06" cy="49.62" r="1.5" transform="matrix(0.5, -0.87, 0.87, 0.5, -39.44, 30.93)"/><circle class="cls-2" cx="15.84" cy="43" r="1.5"/><circle class="cls-2" cx="38.97" cy="4.5" r="1.5" transform="translate(15.59 36) rotate(-60)"/><circle class="cls-2" cx="31.18" cy="9" r="1.5" transform="translate(-0.32 16.8) rotate(-30)"/><circle class="cls-2" cx="24.06" cy="3.88" r="1.5" transform="matrix(0.5, -0.87, 0.87, 0.5, 8.67, 22.78)"/><circle class="cls-2" cx="7.79" cy="4.5" r="1.5" transform="translate(-1.21 4.5) rotate(-29.99)"/><circle class="cls-2" cx="16.09" cy="8" r="1.5" transform="translate(1.12 17.93) rotate(-60)"/><circle class="cls-2" cx="47.52" cy="17.5" r="1.5"/><circle class="cls-2" cx="47.5" cy="45" r="1.5"/><circle class="cls-2" cx="24.52" cy="40.08" r="1.5" transform="translate(-22.45 41.27) rotate(-60)"/><circle class="cls-2" cx="16.02" cy="27.08" r="1.5" transform="translate(-15.44 27.41) rotate(-60)"/><circle class="cls-2" cx="32.25" cy="25.2" r="1.5" transform="translate(-5.7 40.53) rotate(-60)"/><circle class="cls-2" cx="23.27" cy="13.58" r="1.5" transform="translate(-0.12 26.93) rotate(-60)"/><circle class="cls-2" cx="6.77" cy="13.08" r="1.5" transform="translate(-7.94 12.4) rotate(-60)"/><circle class="cls-2" cx="38.83" cy="13" r="1.5" transform="translate(8.16 40.13) rotate(-60.01)"/><circle class="cls-2" cx="7.02" cy="40.08" r="1.5" transform="translate(-31.2 26.11) rotate(-60)"/><circle class="cls-2" cx="15.52" cy="52.83" r="1.5" transform="translate(-37.99 39.85) rotate(-60)"/><circle class="cls-2" cx="33.27" cy="53.33" r="1.5" transform="translate(-29.55 55.47) rotate(-60)"/><circle class="cls-2" cx="39.5" cy="41.25" r="1.5"/><circle class="cls-2" cx="46.77" cy="54.75" r="1.5"/><circle class="cls-2" cx="46.5" cy="26.95" r="1.5" transform="translate(-0.08 53.76) rotate(-60.01)"/><circle class="cls-2" cx="47.48" cy="8" r="1.5"/><circle class="cls-2" cx="45.48" cy="36.25" r="1.5"/><circle class="cls-2" cx="0.75" cy="17.5" r="1.5"/><circle class="cls-2" cx="0.73" cy="45" r="1.5"/><circle class="cls-2" cy="54.75" r="1.5"/><circle class="cls-2" cx="-0.27" cy="26.95" r="1.5" transform="translate(-23.48 13.25) rotate(-60.01)"/><circle class="cls-2" cx="0.72" cy="8" r="1.5"/><circle class="cls-2" cx="-1.28" cy="36.25" r="1.5"/><circle class="cls-2" cx="15.52" cy="-1.18" r="1.5" transform="translate(8.77 12.85) rotate(-60)"/><circle class="cls-2" cx="33.27" cy="-0.68" r="1.5" transform="translate(17.22 28.47) rotate(-60)"/><circle class="cls-2" cx="46.77" cy="0.75" r="1.5"/><circle class="cls-2" cy="0.75" r="1.5"/></pattern></defs><title>n-1</title><g class="cls-3"><circle class="cls-4" cx="50" cy="50" r="50"/></g><path class="cls-5" d="M35.31,64.67H48.12V30.6h-11V22.15a41.06,41.06,0,0,0,14.67-5.38h10v47.9h11v11H35.31Z" transform="translate(0 -0.3)"/><path class="cls-6" d="M31.25,68.73H44.06V34.66H33V26.21a41.06,41.06,0,0,0,14.67-5.38h10v47.9h11v11H31.25Z" transform="translate(0 -0.3)"/></svg>