<svg id="Camada_1" data-name="Camada 1" xmlns="http://www.w3.org/2000/svg" xmlns:xlink="http://www.w3.org/1999/xlink" viewBox="0 0 100 100.62"><defs><style>.cls-1,.cls-2{fill:none;}.cls-2{stroke:#1d1d1b;stroke-width:0.7px;}.cls-3{opacity:0.6;fill:url(#Nova_amostra_de_padrão_1);}.cls-4{fill:#fff;}.cls-5{fill:red;}.cls-6{fill:#333;}</style><pattern id="Nova_amostra_de_padrão_1" data-name="Nova amostra de padrão 1" width="46.77" height="54" patternTransform="translate(-21.56 14.19)" patternUnits="userSpaceOnUse" viewBox="0 0 46.77 54"><rect class="cls-1" width="46.77" height="54"/><circle class="cls-2" cx="39.77" cy="20.83" r="1.5" transform="translate(-5.09 22.68) rotate(-30)"/><circle class="cls-2" cx="38.52" cy="30.67" r="1.5" transform="translate(-7.31 48.68) rotate(-59.98)"/><circle class="cls-2" cx="30.27" cy="17.58" r="1.5" transform="translate(-0.09 35) rotate(-60)"/><circle class="cls-2" cx="22.72" cy="22.88" r="1.5" transform="translate(-8.39 14.41) rotate(-29.99)"/><circle class="cls-2" cx="25.52" cy="30.58" r="1.5" transform="translate(-13.72 37.38) rotate(-60)"/><circle class="cls-2" cx="32.43" cy="36" r="1.5"/><circle class="cls-2" cx="7.82" cy="22.92" r="1.5" transform="translate(-15.94 18.23) rotate(-60)"/><circle class="cls-2" cx="8.45" cy="32" r="1.5" transform="translate(-14.88 8.53) rotate(-30.04)"/><circle class="cls-2" cx="13.72" cy="17.17" r="1.5" transform="translate(-6.75 9.15) rotate(-29.99)"/><circle class="cls-2" cx="18" cy="35" r="1.5"/><circle class="cls-2" cx="39.72" cy="49.25" r="1.5" transform="translate(-19.31 26.46) rotate(-30)"/><circle class="cls-2" cx="24.02" cy="49.33" r="1.5" transform="translate(-21.45 18.62) rotate(-30)"/><circle class="cls-2" cx="31.18" cy="45" r="1.5"/><circle class="cls-2" cx="7.06" cy="49.62" r="1.5" transform="matrix(0.5, -0.87, 0.87, 0.5, -39.44, 30.93)"/><circle class="cls-2" cx="15.84" cy="43" r="1.5"/><circle class="cls-2" cx="38.97" cy="4.5" r="1.5" transform="translate(15.59 36) rotate(-60)"/><circle class="cls-2" cx="31.18" cy="9" r="1.5" transform="translate(-0.32 16.8) rotate(-30)"/><circle class="cls-2" cx="24.06" cy="3.88" r="1.5" transform="matrix(0.5, -0.87, 0.87, 0.5, 8.67, 22.78)"/><circle class="cls-2" cx="7.79" cy="4.5" r="1.5" transform="translate(-1.21 4.5) rotate(-29.99)"/><circle class="cls-2" cx="16.09" cy="8" r="1.5" transform="translate(1.12 17.93) rotate(-60)"/><circle class="cls-2" cx="47.52" cy="17.5" r="1.5"/><circle class="cls-2" cx="47.5" cy="45" r="1.5"/><circle class="cls-2" cx="24.52" cy="40.08" r="1.5" transform="translate(-22.45 41.27) rotate(-60)"/><circle class="cls-2" cx="16.02" cy="27.08" r="1.5" transform="translate(-15.44 27.41) rotate(-60)"/><circle class="cls-2" cx="32.25" cy="25.2" r="1.5" transform="translate(-5.7 40.53) rotate(-60)"/><circle class="cls-2" cx="23.27" cy="13.58" r="1.5" transform="translate(-0.12 26.93) rotate(-60)"/><circle class="cls-2" cx="6.77" cy="13.08" r="1.5" transform="translate(-7.94 12.4) rotate(-60)"/><circle class="cls-2" cx="38.83" cy="13" r="1.5" transform="translate(8.16 40.13) rotate(-60.01)"/><circle class="cls-2" cx="7.02" cy="40.08" r="1.5" transform="translate(-31.2 26.11) rotate(-60)"/><circle class="cls-2" cx="15.52" cy="52.83" r="1.5" transform="translate(-37.99 39.85) rotate(-60)"/><circle class="cls-2" cx="33.27" cy="53.33" r="1.5" transform="translate(-29.55 55.47) rotate(-60)"/><circle class="cls-2" cx="39.5" cy="41.25" r="1.5"/><circle class="cls-2" cx="46.77" cy="54.75" r="1.5"/><circle class="cls-2" cx="46.5" cy="26.95" r="1.5" transform="translate(-0.08 53.76) rotate(-60.01)"/><circle class="cls-2" cx="47.48" cy="8" r="1.5"/><circle class="cls-2" cx="45.48" cy="36.25" r="1.5"/><circle class="cls-2" cx="0.75" cy="17.5" r="1.5"/><circle class="cls-2" cx="0.73" cy="45" r="1.5"/><circle class="cls-2" cy="54.75" r="1.5"/><circle class="cls-2" cx="-0.27" cy="26.95" r="1.5" transform="translate(-23.48 13.25) rotate(-60.01)"/><circle class="cls-2" cx="0.72" cy="8" r="1.5"/><circle class="cls-2" cx="-1.28" cy="36.25" r="1.5"/><circle class="cls-2" cx="15.52" cy="-1.18" r="1.5" transform="translate(8.77 12.85) rotate(-60)"/><circle class="cls-2" cx="33.27" cy="-0.68" r="1.5" transform="translate(17.22 28.47) rotate(-60)"/><circle class="cls-2" cx="46.77" cy="0.75" r="1.5"/><circle class="cls-2" cy="0.75" r="1.5"/></pattern></defs><title>time</title><circle class="cls-3" cx="50.02" cy="48.41" r="48.41"/><path class="cls-4" d="M97.82,71,83.24,56.46A33.83,33.83,0,0,0,43.9,17.12L29.4,2.62,2.22,29.81,16.79,44.38A33.65,33.65,0,0,0,56.13,83.57L70.61,98.2Z" transform="translate(0 0.18)"/><path class="cls-5" d="M80.61,25.89l-4.7,4.7L69.83,24.5l4.7-4.7a1.51,1.51,0,0,1,2.2,0l3.92,3.92A1.46,1.46,0,0,1,80.61,25.89Z" transform="translate(0 0.18)"/><rect class="cls-5" x="70.83" y="77.76" width="27.97" height="14.98" transform="translate(-35.44 85.13) rotate(-45)"/><rect class="cls-5" x="1.2" y="8.13" width="27.97" height="14.98" transform="translate(-6.6 15.5) rotate(-45)"/><path class="cls-5" d="M42.51,42.92h0a10.72,10.72,0,0,0,0,15h0a10.72,10.72,0,0,0,15,0h0a10.72,10.72,0,0,0,0-15h0A10.45,10.45,0,0,0,42.51,42.92Z" transform="translate(0 0.18)"/><path class="cls-4" d="M47,47.44h0a4.15,4.15,0,0,0,0,5.79h0a4.15,4.15,0,0,0,5.79,0h0a4.15,4.15,0,0,0,0-5.79h0A4.2,4.2,0,0,0,47,47.44Z" transform="translate(0 0.18)"/><path class="cls-6" d="M98.43,69.93,84.35,55.86a35.2,35.2,0,0,0-9.83-30.47c-8.44-8-18.42-11.57-30.47-9.83l-14-14-2.17,2.2L40.34,16.21A34.94,34.94,0,0,0,15.51,41L2.85,28.39.68,30.59,14.75,44.66a35.2,35.2,0,0,0,9.83,30.47C32.69,83.24,43,86.53,55,85L69.12,99l2.2-2.2L58.81,84.33A34.94,34.94,0,0,0,83.65,59.49L96.3,72.15ZM81.73,52a31.52,31.52,0,0,1-8.29,20l-3.76-3.76-2.32,2.2,3.76,3.76a31.94,31.94,0,0,1-20,8.29V78.87H48v3.56a31.41,31.41,0,0,1-20-8.29l3.74-3.76-2.2-2.2-3.92,3.76a31.62,31.62,0,0,1-8.29-20H21V48.88H17.38a31.41,31.41,0,0,1,8.29-20l3.74,3.76,2.2-2.2-3.74-3.74a31.94,31.94,0,0,1,20-8.29V22H51V18.41a31.41,31.41,0,0,1,20,8.29l-3.76,3.74,2.2,2.2,3.76-3.76a32.19,32.19,0,0,1,8.29,20H77.84V52l3.89,0Z" transform="translate(0 0.18)"/><path class="cls-6" d="M67,65.1l-12-12a5.71,5.71,0,0,0,0-5.48l8.11-8.11-2.2-2.2L52.82,45.4a5.93,5.93,0,0,0-6.72.93,5.81,5.81,0,0,0,0,8.11,5.7,5.7,0,0,0,4.07,1.72,6.19,6.19,0,0,0,2.8-.78l12,12Zm-18.9-13a2.65,2.65,0,0,1,0-3.59A2.55,2.55,0,0,1,50,47.77a2.78,2.78,0,0,1,1.87.78,2.65,2.65,0,0,1,0,3.59A2.55,2.55,0,0,1,48.15,52.14Z" transform="translate(0 0.18)"/></svg>